# Blender v2.79 (sub 5) OBJ File: 'SealSpawn.blend'
# www.blender.org
mtllib Mural.mtl
o Plane_Plane.002
v 2.413574 10.000000 30.000000
v 2.413575 0.000000 30.000000
v 2.413574 10.000000 -30.000000
v 2.413575 0.000000 -30.000000
v 2.413574 10.000000 -20.000000
v 2.413574 10.000000 -10.000000
v 2.413574 10.000000 0.000000
v 2.413574 10.000000 10.000000
v 2.413574 10.000000 20.000000
v 2.413575 0.000000 20.000000
v 2.413575 0.000000 10.000000
v 2.413575 0.000000 0.000000
v 2.413575 0.000000 -10.000000
v 2.413575 0.000000 -20.000000
v 2.413575 -2.596793 30.000000
v 2.413575 -2.596793 -30.000000
v 2.413575 -2.596793 20.000000
v 2.413575 -2.596793 10.000000
v 2.413575 -2.596793 0.000000
v 2.413575 -2.596793 -10.000000
v 2.413575 -2.596793 -20.000000
v 2.413575 -11.758049 30.000000
v 2.413575 -11.758049 -30.000000
v 2.413575 -11.758049 20.000000
v 2.413575 -11.758049 10.000000
v 2.413575 -11.758049 0.000000
v 2.413575 -11.758049 -10.000000
v 2.413575 -11.758049 -20.000000
vt 0.681818 0.015152
vt 0.984849 0.015152
vt 0.984848 0.318182
vt 0.681818 0.318182
vt 0.015152 0.348485
vt 0.318182 0.348485
vt 0.318182 0.651515
vt 0.015152 0.651515
vt 0.348485 0.015152
vt 0.651515 0.015152
vt 0.651515 0.318182
vt 0.348485 0.318182
vt 0.348485 0.651515
vt 0.348485 0.348485
vt 0.651515 0.348485
vt 0.651515 0.651515
vt 0.318182 0.984848
vt 0.015152 0.984848
vt 0.015152 0.681818
vt 0.318182 0.681818
vt 0.015152 0.015152
vt 0.318182 0.015152
vt 0.318182 0.318182
vt 0.015152 0.318182
vt 0.760509 0.348485
vt 0.760509 0.651515
vt 0.681818 0.651515
vt 0.681818 0.348485
vt 0.566473 0.984848
vt 0.566472 0.681818
vt 0.645163 0.681818
vt 0.645163 0.984848
vt 0.457479 0.984848
vt 0.457479 0.681818
vt 0.536169 0.681818
vt 0.536169 0.984848
vt 0.790812 0.651515
vt 0.790812 0.348485
vt 0.869503 0.348485
vt 0.869503 0.651515
vt 0.348485 0.984848
vt 0.348485 0.681818
vt 0.427176 0.681818
vt 0.427176 0.984848
vt 0.754157 0.681818
vt 0.754157 0.984848
vt 0.675466 0.984848
vt 0.675466 0.681818
vt 0.959499 0.803365
vt 0.959499 0.837127
vt 0.773815 0.837127
vt 0.773815 0.803365
vt 0.959499 0.870890
vt 0.959499 0.904653
vt 0.773815 0.904653
vt 0.773815 0.870890
vt 0.959499 0.735839
vt 0.959499 0.769602
vt 0.773815 0.769602
vt 0.773815 0.735839
vt 0.959499 0.938415
vt 0.773815 0.938415
vn 1.0000 0.0000 0.0000
usemtl Material.010
s off
f 5/1/1 14/2/1 4/3/1 3/4/1
f 1/5/1 2/6/1 10/7/1 9/8/1
f 9/9/1 10/10/1 11/11/1 8/12/1
f 8/13/1 11/14/1 12/15/1 7/16/1
f 7/17/1 12/18/1 13/19/1 6/20/1
f 6/21/1 13/22/1 14/23/1 5/24/1
f 13/25/1 12/26/1 19/27/1 20/28/1
f 11/29/1 10/30/1 17/31/1 18/32/1
f 14/33/1 13/34/1 20/35/1 21/36/1
f 4/37/1 14/38/1 21/39/1 16/40/1
f 12/41/1 11/42/1 18/43/1 19/44/1
f 10/45/1 2/46/1 15/47/1 17/48/1
f 20/49/1 19/50/1 26/51/1 27/52/1
f 18/53/1 17/54/1 24/55/1 25/56/1
f 16/57/1 21/58/1 28/59/1 23/60/1
f 21/58/1 20/49/1 27/52/1 28/59/1
f 19/50/1 18/53/1 25/56/1 26/51/1
f 17/54/1 15/61/1 22/62/1 24/55/1
